<svg xmlns="http://www.w3.org/2000/svg" xmlns:xlink="http://www.w3.org/1999/xlink" version="1.1" x="0px" y="0px" viewBox="0 0 100 100" enable-background="new 0 0 100 100" xml:space="preserve"><g><path fill="#000000" d="M72.094,40.048c0.42-1.002-0.048-2.149-1.044-2.575c-3.553-1.493-11.568-2.72-16.416,3.444   c-0.671,0.854-0.522,2.088,0.331,2.767c0.36,0.284,0.788,0.42,1.216,0.42c0.581,0,1.158-0.257,1.545-0.752   c4.19-5.324,11.486-2.38,11.791-2.245C70.527,41.526,71.674,41.045,72.094,40.048z"></path><path fill="#000000" d="M52.943,61.255c-0.373-1.212-1.584-2.106-3.036-2.106c-1.457,0-2.667,0.9-3.035,2.121   c-0.661-0.177-1.084-0.346-1.095-0.35c-0.955-0.38-1.999,0.073-2.38,1.004c-0.378,0.927,0.055,1.992,0.991,2.372   c0.109,0.04,2.568,1.044,5.533,1.044c2.399,0,4.312-0.645,5.214-0.95c0.812-0.188,1.403-0.914,1.403-1.782   c0-1.011-0.813-1.824-1.817-1.824l-0.881,0.189C53.646,61.042,53.334,61.147,52.943,61.255z"></path><path fill="#000000" d="M35.621,74.677v2.359c0,0,4.91,4.164,14.286,4.164c9.364,0,14.267-4.463,14.267-4.463V73.79H35.621V74.677z   "></path><path fill="#000000" d="M68.121,47.324c0-0.304-0.028-0.596-0.097-0.875l-3.511,0.495l0.969-3.376   c-0.42-0.149-0.888-0.238-1.355-0.238c-2.204,0-3.994,1.79-3.994,3.994c0,2.21,1.79,3.994,3.994,3.994   C66.338,51.318,68.121,49.534,68.121,47.324z"></path><path fill="#000000" d="M38.666,51.163h1.39c0.38,0,0.698-0.313,0.698-0.7v-4.867c0-0.379-0.318-0.693-0.698-0.693h-1.39   c-0.386,0-0.699,0.313-0.699,0.693v4.867C37.967,50.85,38.28,51.163,38.666,51.163z"></path><path fill="#000000" d="M34.719,51.163h1.397c0.38,0,0.692-0.313,0.692-0.7v-7.648c0-0.386-0.312-0.698-0.692-0.698h-1.397   c-0.38,0-0.691,0.312-0.691,0.698v7.648C34.027,50.85,34.339,51.163,34.719,51.163z"></path><path fill="#000000" d="M30.78,51.163h1.389c0.387,0,0.7-0.313,0.7-0.7v-1.816c0-0.379-0.313-0.692-0.7-0.692H30.78   c-0.381,0-0.699,0.313-0.699,0.692v1.816C30.081,50.85,30.399,51.163,30.78,51.163z"></path><path fill="#000000" d="M21.578,48.409l0.075,0.672c0.156,1.519,3.41,2.014,4.008,2.094c0.312,0.802,0.726,1.54,1.207,2.23   c-0.278,0.563-1.689,3.554-0.516,4.489l0.664,0.448c1.54,1.246,4.203-1.342,4.203-1.342l-0.143-0.123   c0.813,0.365,1.695,0.638,2.598,0.8c0.202,0.576,1.371,3.633,2.882,3.479l0.672-0.075c1.967-0.203,2.067-3.934,2.067-3.934   l-0.177,0.015c0.87-0.318,1.684-0.747,2.414-1.275c0.659,0.354,3.411,1.688,4.327,0.557l0.617-0.76   c1.22-1.512-1.303-4.09-1.383-4.163c0.352-0.787,0.608-1.613,0.758-2.481c0.746-0.287,3.553-1.412,3.397-2.848l-0.074-0.678   c-0.197-1.906-3.695-2.062-3.905-2.076c-0.326-0.813-0.747-1.573-1.255-2.278c0.414-0.698,1.837-3.309,0.494-4.38l-0.671-0.583   c-1.132-0.921-3.586,0.963-4.176,1.437c-0.802-0.345-1.648-0.602-2.523-0.746c-0.225-0.799-1.125-3.579-2.808-3.403l-0.677,0.067   c-1.444,0.158-1.974,3.188-2.083,3.947c-0.819,0.326-1.572,0.745-2.278,1.248c-0.623-0.366-3.314-1.844-4.42-0.488l-0.59,0.61   c-0.956,1.179,1.118,3.811,1.491,4.272c-0.338,0.773-0.582,1.585-0.725,2.441C24.358,45.771,21.396,46.667,21.578,48.409z    M35.417,39.729c4.198,0,7.603,3.397,7.603,7.602c0,4.19-3.404,7.594-7.603,7.594c-4.189,0-7.593-3.404-7.593-7.594   C27.824,43.127,31.228,39.729,35.417,39.729z"></path><path fill="#000000" d="M21.531,70.818c0.054,0.34,0.394,2.13,1.234,2.185l0.367,0.025c1.097,0.083,1.518-1.938,1.518-1.938   l-0.095-0.015c0.501-0.087,0.99-0.245,1.444-0.46c0.325,0.257,1.695,1.259,2.305,0.731l0.413-0.354   c0.822-0.705-0.311-2.365-0.346-2.414c0.271-0.392,0.496-0.826,0.659-1.286c0.434-0.067,2.074-0.422,2.135-1.216l0.027-0.372   c0.081-1.063-1.81-1.491-1.926-1.519c-0.101-0.481-0.258-0.937-0.468-1.37c0.297-0.337,1.33-1.627,0.705-2.347l-0.312-0.386   c-0.528-0.616-2.055,0.17-2.428,0.373c-0.399-0.265-0.835-0.489-1.301-0.651c-0.042-0.453-0.259-2.061-1.202-2.137l-0.365-0.025   c-0.813-0.062-1.403,1.546-1.533,1.944c-0.474,0.097-0.928,0.258-1.362,0.462c-0.311-0.264-1.634-1.336-2.365-0.706l-0.388,0.287   c-0.637,0.542,0.23,2.183,0.394,2.467c-0.258,0.393-0.474,0.812-0.638,1.268c-0.393,0.036-2.095,0.238-2.169,1.2l-0.027,0.38   c-0.062,0.842,1.66,1.438,1.98,1.533c0.095,0.473,0.25,0.914,0.447,1.344c-0.21,0.271-1.275,1.768-0.726,2.399l0.318,0.312   c0.719,0.826,2.427-0.325,2.427-0.325l-0.067-0.082C20.603,70.411,21.05,70.643,21.531,70.818z M23.653,63.185   c1.194,0.093,2.089,1.125,1.999,2.318c-0.086,1.186-1.124,2.075-2.312,1.994c-1.186-0.096-2.081-1.127-1.992-2.319   C21.437,63.991,22.474,63.103,23.653,63.185z"></path><path fill="#000000" d="M82.645,35.058c0-10.307,0-12.482,0-12.482c0-18.278-32.743-20.281-32.743-20.281   S17.354-5.476,17.354,20.86c0,0,0,3.891,0,14.197c0,0-8.591,0.244-8.591,11.053c0,7.908,5.064,12.191,7.798,13.955   c0.97-2.55,2.644-4.381,4.646-4.883v-13.52c0,0-3.853-25.374,28.796-25.374c0,0,0.245-0.004,0.681,0.005   c4.233,5.452,12.442,13.153,27.204,18.026c0.571,2.179,0.904,4.604,0.904,7.342c0,8.502,0,13.044,0,15.364   c0,20.091-12.896,36.386-28.789,36.386c-11.209,0-20.5-7.018-25.212-18.707c-0.718,0.4-1.492,0.65-2.312,0.65   c-0.725,0-1.409-0.217-2.067-0.542c1.723,5.161,4.129,9.999,8.497,14.8v0.007v0.008c4.808,5.288,11.533,9.147,20.932,9.147   c27.278,0,32.18-32.365,32.845-38.25c2.427-1.384,8.551-5.729,8.551-14.415C91.235,35.302,82.645,35.058,82.645,35.058z"></path></g></svg>