<svg width="39" height="35" viewBox="0 0 39 35" fill="none" xmlns="http://www.w3.org/2000/svg">
<rect opacity="0.1" width="39" height="35" rx="17.5" fill="#000000"/>
<path fill-rule="evenodd" clip-rule="evenodd" d="M20 13C17.2 13 15 15.2 15 18C15 20.8 17.2 23 20 23C22.8 23 25 20.8 25 18C25 15.2 22.8 13 20 13ZM20 8C14.5 8 10 12.5 10 18C10 23.5 14.5 28 20 28C25.5 28 30 23.5 30 18C30 12.5 25.5 8 20 8ZM20 26C15.6 26 12 22.4 12 18C12 13.6 15.6 10 20 10C24.4 10 28 13.6 28 18C28 22.4 24.4 26 20 26Z" fill="#000000"/>
</svg>
